<svg xmlns="http://www.w3.org/2000/svg" version="1.1" x="0" y="0" width="64" height="64" viewBox="0 0 64 64" enable-background="new 0 0 64 64" xml:space="preserve"><path fill="white" d="M0 32c0-3.2 0-6.4 0-9.6 0-1.1 0.4-1.9 1.4-2.6C11 13.4 20.7 7 30.3 0.6c1.1-0.8 2.3-0.8 3.4 0C43.3 7 53 13.4 62.6 19.9c0.9 0.6 1.4 1.4 1.4 2.6 0 6.4 0 12.8 0 19.1 0 1.1-0.4 1.9-1.4 2.6C53 50.6 43.3 57 33.7 63.4c-1.1 0.8-2.3 0.8-3.4 0C20.7 57 11 50.6 1.4 44.1 0.4 43.5 0 42.7 0 41.6 0 38.4 0 35.2 0 32zM7.7 22.2c0.1 0.1 0.1 0.1 0.2 0.1 3.1 2 6.1 4.1 9.1 6.1 0.2 0.2 0.4 0.1 0.6 0 3.8-2.5 7.5-5 11.3-7.5 0.2-0.2 0.3-0.3 0.3-0.6 0-4 0-8 0-12 0-0.1 0-0.3 0-0.4C22 12.7 14.9 17.5 7.7 22.2zM34.8 7.9c0 0.2 0 0.2 0 0.3 0 4.1 0 8.1 0 12.2 0 0.3 0.1 0.4 0.3 0.5 3.8 2.5 7.5 5 11.3 7.5 0.2 0.2 0.4 0.2 0.6 0 2.3-1.6 4.7-3.1 7-4.7 0.7-0.5 1.5-1 2.2-1.5C49.1 17.5 42 12.7 34.8 7.9zM7.7 41.8c7.2 4.8 14.3 9.5 21.5 14.3 0-0.2 0-0.2 0-0.3 0-4.1 0-8.1 0-12.2 0-0.3-0.1-0.4-0.3-0.5 -3.8-2.5-7.5-5-11.3-7.5 -0.2-0.2-0.4-0.2-0.6 0 -1.7 1.1-3.3 2.2-5 3.3C10.6 39.8 9.2 40.8 7.7 41.8zM56.3 41.8c-0.1-0.1-0.2-0.2-0.3-0.2 -3-2-6-4-8.9-6 -0.3-0.2-0.5-0.2-0.7 0 -3.7 2.5-7.5 5-11.2 7.5 -0.2 0.2-0.3 0.3-0.3 0.6 0 4 0 8 0 12 0 0.1 0 0.3 0 0.5C42 51.3 49.1 46.5 56.3 41.8zM22.3 32c0.1 0.1 0.3 0.2 0.4 0.3 3 2 6 4 9 6 0.2 0.2 0.4 0.2 0.6 0 2.6-1.8 5.2-3.5 7.9-5.3 0.5-0.3 1-0.7 1.5-1 -0.1-0.1-0.2-0.2-0.3-0.2 -3-2-6.1-4-9.1-6.1 -0.2-0.2-0.4-0.2-0.6 0 -2.6 1.8-5.2 3.5-7.9 5.3C23.3 31.3 22.8 31.6 22.3 32zM58.5 27.4c-2.3 1.5-4.6 3.1-6.9 4.6 2.3 1.6 4.6 3.1 6.9 4.6C58.5 33.5 58.5 30.5 58.5 27.4zM5.5 36.6c2.3-1.6 4.6-3.1 6.9-4.6 -2.3-1.5-4.6-3-6.9-4.6C5.5 30.5 5.5 33.5 5.5 36.6z"/></svg>