<svg xmlns="http://www.w3.org/2000/svg" version="1.1" x="0" y="0" width="64" height="64" viewBox="0 0 64 64" enable-background="new 0 0 64 64" xml:space="preserve"><path fill="white" d="M38 46.9c1.3-0.2 2.6-0.4 3.9-0.8 2.8-0.7 5.4-2 7.3-4.3 1.2-1.4 1.9-3 2.4-4.7 0.7-2.4 0.9-4.8 0.8-7.2 -0.2-2.6-1.1-4.9-2.8-6.9 -0.4-0.4-0.4-0.8-0.2-1.3 0.7-2.1 0.5-4.2-0.1-6.3 -0.1-0.3-0.3-0.7-0.3-1 -0.1-0.4-0.4-0.5-0.7-0.6 -1 0-2 0.3-2.9 0.6 -1.7 0.6-3.4 1.5-4.9 2.5 -0.2 0.1-0.5 0.2-0.8 0.1 -2.5-0.7-5-1-7.5-1 -2.6 0-5.1 0.3-7.6 1 -0.3 0.1-0.6 0.1-0.9-0.1 -1.9-1.3-4-2.3-6.2-2.9 -0.6-0.2-1.2-0.2-1.9-0.2 -0.2 0-0.4 0.2-0.5 0.3 -0.8 2.3-1.3 4.6-0.6 7 0.3 1 0.1 1.5-0.5 2.3 -1.7 2.2-2.4 4.7-2.4 7.4 0 2.9 0.4 5.7 1.6 8.3 1 2.3 2.7 4 4.9 5.2 2.4 1.3 5 1.9 7.7 2.3 0.1 0 0.1 0 0.2 0 0 0.1 0 0.1 0 0.1 -1.1 1.1-1.6 2.4-1.9 3.9 0 0.1-0.1 0.3-0.2 0.3 -1.9 0.8-3.8 1.1-5.8 0.4 -1.4-0.5-2.3-1.5-3.1-2.7 -0.8-1.4-1.9-2.4-3.3-3.1 -0.9-0.4-1.8-0.6-2.8-0.4 -0.6 0.1-0.7 0.4-0.3 0.9 0.3 0.4 0.6 0.7 1 0.9 1.6 0.9 2.5 2.3 3.2 3.9 0.4 0.8 0.7 1.7 1.2 2.4 1 1.4 2.5 2.1 4.2 2.3 1.9 0.3 3.8 0.4 5.8-0.1 0 0.2 0 0.3 0 0.4 0 1.7 0 3.5 0 5.2 0 1.5-1 2.2-2.5 1.7 -4.5-1.6-8.6-4-12-7.4 -3.7-3.7-6.5-8-8.1-13.1 -1.4-4.2-1.7-8.6-1.3-13C0.6 24.3 2.4 19.5 5.3 15c2.8-4.3 6.5-7.6 11-10.2C20 2.8 23.9 1.5 28.1 1c7.4-0.8 14.3 0.6 20.7 4.5 5.9 3.6 10.1 8.6 12.8 14.9 1.5 3.5 2.3 7.2 2.4 11 0.2 4.6-0.5 9.2-2.3 13.4 -3.8 8.8-10.2 15-19.3 18.2 -1.4 0.5-2.4-0.2-2.4-1.7 0-2.9 0-5.7 0-8.6 0-1.4-0.1-2.8-0.8-4C38.8 48.1 38.4 47.5 38 46.9z"/></svg>