<svg xmlns="http://www.w3.org/2000/svg" version="1.1" x="0" y="0" width="64" height="64" viewBox="0 0 64 64" enable-background="new 0 0 64 64" xml:space="preserve"><path fill="white" d="M32 0c7.9 0 15.8 0 23.7 0 3.6 0 6.7 2.2 7.8 5.6C63.8 6.4 64 7.4 64 8.3c0 15.8 0 31.6 0 47.5 0 4-2.7 7.3-6.6 8.1C56.8 64 56.2 64 55.7 64c-15.8 0-31.6 0-47.3 0 -4 0-7.4-2.7-8.2-6.6C0 56.8 0 56.3 0 55.7 0 39.9 0 24.1 0 8.3c0-4 2.7-7.3 6.6-8.1C7.2 0 7.8 0 8.4 0 16.3 0 24.2 0 32 0zM7.2 27.1c0 0.1 0 0.3 0 0.4 0 8.8 0 17.6 0 26.4 0 1.7 1 2.7 2.7 2.7 14.7 0 29.4 0 44.1 0 0.3 0 0.6 0 0.9-0.1 1.2-0.3 1.9-1.3 1.9-2.8 0-8.7 0-17.4 0-26.1 0-0.2 0-0.3 0-0.5 -1.9 0-3.7 0-5.6 0 0 0.1 0 0.2 0 0.3 0.6 1.9 0.8 3.9 0.7 6 -0.2 4.6-1.8 8.7-4.9 12 -5.2 5.5-11.6 7.4-18.9 6.1 -4.9-0.8-8.7-3.4-11.8-7.2 -3.5-4.4-4.7-9.4-3.8-14.9 0.1-0.8 0.3-1.5 0.5-2.3C11 27.1 9.1 27.1 7.2 27.1zM44.9 31.8c0-3.5-1.4-6.6-4.1-9 -3-2.7-6.5-3.7-10.5-3.3 -5.4 0.6-10.2 5.1-11 10.3 -0.4 2.8-0.1 5.5 1.3 7.9 3.1 5.2 8.5 7.5 14.4 6.2C40.3 42.9 45 38 44.9 31.8zM50.3 7.1c-1.3 0-2.5 0-3.8 0 -1.6 0-2.7 1.2-2.7 2.8 0 2.3 0 4.7 0 7 0 1.5 1.1 2.7 2.7 2.7 2.5 0.1 4.9 0 7.4 0 0.3 0 0.5 0 0.8-0.1 1.4-0.3 2.2-1.4 2.2-3 0-1.7 0-3.5 0-5.2 0-0.6 0-1.2-0.1-1.9 -0.2-1.4-1.3-2.5-2.7-2.5C52.8 7.1 51.5 7.1 50.3 7.1z"/></svg>