<svg xmlns="http://www.w3.org/2000/svg" version="1.1" x="0" y="0" width="64" height="64" viewBox="0 0 64 64" enable-background="new 0 0 64 64" xml:space="preserve"><path fill="white" d="M50.3 62.6c0-0.2 0-0.4 0-0.6 0-7.2 0-14.5 0-21.7 0-1.9-0.3-3.7-1-5.4 -1.1-2.5-3.1-3.6-5.7-3.7 -4.4-0.2-7.7 3.8-7.7 7.6 0 4.5 0 8.9 0 13.4 0 3.3 0 6.6 0 9.9 0 0.2 0 0.4 0 0.6 -4.6 0-9.1 0-13.7 0 0-13.7 0-27.5 0-41.2 4.5 0 9.1 0 13.7 0 0 1.9 0 3.8 0 5.6 0 0 0.1 0 0.1 0.1 0.1-0.2 0.3-0.4 0.4-0.6 1.5-2.2 3.4-3.9 5.9-5 2.1-0.9 4.3-1.1 6.5-1.1 2.9 0.1 5.7 0.8 8.2 2.4 3.4 2.2 5.3 5.4 6.3 9.3 0.5 2.1 0.8 4.3 0.8 6.5 0 7.9 0 15.8 0 23.7 0 0.1 0 0.3 0 0.4C59.4 62.6 54.9 62.6 50.3 62.6zM14.5 21.3c0 13.7 0 27.5 0 41.2 -4.6 0-9.1 0-13.7 0 0-13.7 0-27.5 0-41.2C5.4 21.3 9.9 21.3 14.5 21.3zM7.6 15.7c-2 0-3.8-0.5-5.3-1.9C0.5 12.2-0.2 10.1 0 7.7c0.3-3.6 3.4-6.1 7.2-6.3 1.6-0.1 3.1 0.1 4.6 0.9 2.4 1.3 3.6 3.4 3.6 6.1 0.1 3.7-2.5 6.7-6.2 7.1C8.7 15.6 8.1 15.6 7.6 15.7z"/></svg>