<svg xmlns="http://www.w3.org/2000/svg" version="1.1" x="0" y="0" width="64" height="64" viewBox="0 0 64 64" enable-background="new 0 0 64 64" xml:space="preserve"><path fill="white" d="M0 52.3c7.1 0.6 13.5-1.1 19.2-5.5 -6-0.5-10.1-3.5-12.3-9.2 2 0.3 3.9 0.3 5.8-0.2 -3.8-0.9-6.7-3.1-8.7-6.4 -1.2-2-1.7-4.2-1.7-6.7 1.8 1 3.7 1.6 5.9 1.6 -2.9-2.1-4.7-4.7-5.5-8.1 -0.7-3.3-0.3-6.5 1.5-9.5 7.1 8.4 16.1 13 27.1 13.8 -0.1-0.9-0.2-1.7-0.2-2.5 -0.1-3.4 0.9-6.5 3.1-9.1 1.6-1.9 3.5-3.3 5.9-4 4.8-1.4 9.2-0.6 13 2.9 0.5 0.5 1 0.7 1.7 0.5 2.4-0.6 4.7-1.5 6.9-2.7C61.9 7.1 62 7 62.2 6.9c-1 3.1-2.9 5.4-5.6 7.2 2.5-0.2 4.9-0.9 7.3-1.9 0 0 0.1 0.1 0.1 0.1 -0.8 1-1.6 2-2.4 2.9 -1.2 1.2-2.5 2.3-3.8 3.5 -0.2 0.2-0.3 0.3-0.3 0.6 0.3 10.4-3.3 19.4-10.1 27.1 -5.1 5.7-11.5 9.3-18.9 10.8 -7.7 1.6-15.2 1.1-22.5-1.8 -2-0.8-3.9-1.8-5.7-2.9C0.1 52.4 0.1 52.3 0 52.3z"/></svg>