<?xml version="1.0" encoding="utf-8"?>
<!-- Generator: Adobe Illustrator 18.0.0, SVG Export Plug-In . SVG Version: 6.00 Build 0)  -->
<!DOCTYPE svg PUBLIC "-//W3C//DTD SVG 1.1//EN" "http://www.w3.org/Graphics/SVG/1.1/DTD/svg11.dtd">
<svg version="1.1" id="Layer_1" xmlns="http://www.w3.org/2000/svg" xmlns:xlink="http://www.w3.org/1999/xlink" x="0px" y="0px"
	 width="64px" height="64px" viewBox="0 0 64 64" enable-background="new 0 0 64 64" xml:space="preserve">
<g>
	<path fill="#FFFFFF" d="M47.4,59H16.5c-0.3,0-0.7-0.2-0.8-0.5L0.2,32.4c-0.2-0.3-0.2-0.7,0-1l15.5-26C15.9,5.1,16.2,5,16.5,5h30.9
		c0.3,0,0.7,0.1,0.8,0.4l15.5,26.1c0.2,0.3,0.2,0.7,0,1L48.3,58.6C48.1,58.9,47.8,59,47.4,59z M17.1,57h29.8l14.9-25L46.9,7H17.1
		L2.2,32L17.1,57z"/>
</g>
<g>
	<path fill="#FFFFFF" d="M43,18v5.1h-7.8v22.7h-6.5V23.1h-7.8V18H43z"/>
</g>
</svg>
