<?xml version="1.0" encoding="utf-8"?>
<!-- Generator: Adobe Illustrator 18.0.0, SVG Export Plug-In . SVG Version: 6.00 Build 0)  -->
<!DOCTYPE svg PUBLIC "-//W3C//DTD SVG 1.1//EN" "http://www.w3.org/Graphics/SVG/1.1/DTD/svg11.dtd">
<svg version="1.1" id="Layer_1" xmlns="http://www.w3.org/2000/svg" xmlns:xlink="http://www.w3.org/1999/xlink" x="0px" y="0px"
	 width="64px" height="64px" viewBox="0 0 64 64" enable-background="new 0 0 64 64" xml:space="preserve">
<g>
	<path fill="#FFFFFF" d="M61.2,5.3c1.7,0,2.8,1.1,2.8,2.8c0,1.7,0,3.4,0,5.1c0,1.6-1.2,2.8-2.8,2.8c-19.5,0-39,0-58.5,0
		C1.2,16,0,14.8,0,13.2c0-1.7,0-3.4,0-5.1c0-1.6,1.2-2.8,2.8-2.8L61.2,5.3z"/>
	<path fill="#FFFFFF" d="M2.8,37.3c-1.6,0-2.9-1.3-2.8-2.9c0.1-1.7,0-3.4,0-5.1c0-1.6,1.2-2.8,2.8-2.8c19.5,0,39,0,58.5,0
		c1.6,0,2.8,1.2,2.8,2.8c0,1.7,0,3.4,0,5.1c0,1.6-1.2,2.8-2.8,2.8L2.8,37.3z"/>
	<path fill="#FFFFFF" d="M61.2,48c1.7,0,2.8,1.1,2.8,2.8c0,1.7,0,3.4,0,5.1c0,1.6-1.2,2.8-2.8,2.8c-19.5,0-39,0-58.5,0
		c-1.6,0-2.8-1.2-2.8-2.8c0-1.7,0-3.4,0-5.1C0,49.2,1.2,48,2.8,48L61.2,48z"/>
</g>
</svg>
